<?xml version="1.0" encoding="utf-8"?>
<!-- Generator: Adobe Illustrator 16.0.0, SVG Export Plug-In . SVG Version: 6.00 Build 0)  -->
<svg version="1.2" baseProfile="tiny" id="Layer_1" xmlns="http://www.w3.org/2000/svg" xmlns:xlink="http://www.w3.org/1999/xlink"
	 x="0px" y="0px" width="512.865px" height="65.523px" viewBox="0 0 512.865 65.523" xml:space="preserve">
<g>
	<path fill="#FFFFFF" d="M284.248,52.502c-0.035,1.891,0.49,2.695,1.82,2.766c1.19,0.069,1.925-0.596,1.925-1.716
		c0-0.699-0.245-1.154-0.77-1.505c-0.315-0.175-0.63-0.35-1.015-0.455l-0.84-0.314l-0.805-0.28l-0.84-0.28
		c-3.885-1.365-5.181-2.976-5.181-6.336c0-3.92,2.766-6.021,7.876-6.021c2.521,0,4.55,0.596,5.811,1.716
		c1.05,0.944,1.54,2.274,1.54,4.13v0.385h-5.706c0.035-1.575-0.455-2.205-1.68-2.205c-1.155,0-1.785,0.49-1.785,1.436
		c0,1.015,0.525,1.47,2.275,1.995c2.31,0.7,3.885,1.295,4.866,1.82c1.505,0.875,2.38,2.45,2.485,4.655
		c0.21,4.445-2.695,7.001-7.946,7.001c-5.391,0-7.875-1.995-7.875-6.336v-0.455H284.248z"/>
	<path fill="#FFFFFF" d="M303.323,38.99v1.12c0,0.421-0.035,0.7-0.21,1.33l0.175,0.035c1.19-2.17,3.045-3.22,5.496-3.01
		c2.24,0.175,3.36,1.05,4.201,3.186h0.105c1.33-2.416,2.625-3.221,5.215-3.221c1.996,0,3.605,0.91,4.341,2.38
		c0.385,0.875,0.56,1.891,0.56,3.746v14.246h-6.616V46.866c0-1.61-0.035-2.135-0.21-2.52c-0.175-0.525-0.63-0.841-1.225-0.876
		c-1.19-0.069-1.786,0.806-1.786,2.661v12.671h-6.581V46.376c0-0.104,0-0.489-0.035-0.84c-0.035-1.435-0.49-2.065-1.47-2.065
		c-0.805,0-1.4,0.455-1.61,1.261c-0.105,0.35-0.105,0.314-0.105,1.225c-0.035,0.386-0.035,0.176-0.035,0.7v12.146h-6.545V38.99
		H303.323z"/>
	<path fill="#FFFFFF" d="M326.457,45.081c0.07-4.726,2.415-6.58,8.156-6.58c3.396,0,5.706,0.944,6.686,2.695
		c0.525,0.91,0.63,1.68,0.63,4.48v8.12v0.596c0,2.205,0.175,3.5,0.63,4.41h-6.301c-0.105-0.875-0.14-1.575-0.175-2.556l-0.175-0.034
		c-0.805,1.89-2.24,2.905-4.34,3.08c-3.675,0.28-5.706-1.82-5.706-5.916c0-2.345,0.63-4.025,1.925-4.936
		c0.77-0.524,1.645-0.91,3.255-1.33c0.49-0.104-0.42,0.105,2.8-0.63c1.505-0.35,1.995-0.91,1.995-2.275
		c0-1.05-0.63-1.715-1.645-1.715c-1.365,0-1.891,0.735-1.891,2.59H326.457z M335.802,50.542c0-0.63,0-0.806,0.105-1.4
		c-0.28,0.21-0.35,0.245-0.7,0.385l-0.595,0.245c-2.1,0.771-2.38,1.085-2.38,2.836c0,1.47,0.595,2.24,1.715,2.24
		c0.84,0,1.47-0.525,1.715-1.436c0.105-0.385,0.14-0.805,0.14-1.646V50.542z"/>
	<path fill="#FFFFFF" d="M351.867,32.585v26.218h-6.545V32.585H351.867z"/>
	<path fill="#FFFFFF" d="M361.771,32.585v26.218h-6.545V32.585H361.771z"/>
	<path fill="#FFFFFF" d="M377.591,59.923c0.035,1.155,0.595,1.646,1.855,1.646c1.33,0,1.924-0.875,1.924-2.94v-1.506
		c0-0.665,0.035-0.979,0.176-1.75l-0.141-0.035c-1.154,2.03-2.52,2.906-4.516,2.906c-4.095,0-5.949-3.081-5.949-9.871
		c0-3.711,0.455-6.091,1.469-7.631c0.945-1.506,2.591-2.311,4.656-2.311c2.24,0,3.711,1.19,4.48,3.57l0.175-0.035
		c-0.175-0.945-0.21-1.295-0.21-1.61V38.99h6.195v17.957c0,3.396-0.244,4.586-1.225,5.881c-1.33,1.82-3.676,2.695-7.246,2.695
		c-5.18,0-7.49-1.715-7.631-5.601H377.591z M377.8,44.906c-0.139,0.63-0.209,1.82-0.209,3.431c0,2.345,0.07,3.325,0.314,4.025
		c0.245,0.734,0.771,1.12,1.436,1.12c0.84,0,1.33-0.386,1.645-1.261c0.246-0.63,0.315-1.609,0.315-3.92
		c0-3.78-0.455-4.971-1.89-4.971C378.606,43.331,378.046,43.892,377.8,44.906z"/>
	<path fill="#FFFFFF" d="M397.437,38.99v1.471c0,0.525-0.035,0.875-0.211,1.68l0.176,0.035c0.664-1.295,1.049-1.89,1.645-2.415
		c1.016-0.945,1.68-1.155,3.676-1.155h0.314v6.126c-0.631-0.07-1.051-0.105-1.541-0.105c-1.574,0-2.695,0.42-3.324,1.19
		c-0.385,0.49-0.525,1.085-0.525,2.45v10.536h-6.545V38.99H397.437z"/>
	<path fill="#FFFFFF" d="M404.82,45.081c0.07-4.726,2.416-6.58,8.156-6.58c3.395,0,5.705,0.944,6.686,2.695
		c0.525,0.91,0.631,1.68,0.631,4.48v8.12v0.596c0,2.205,0.174,3.5,0.629,4.41h-6.301c-0.104-0.875-0.139-1.575-0.174-2.556
		l-0.176-0.034c-0.805,1.89-2.24,2.905-4.34,3.08c-3.676,0.28-5.707-1.82-5.707-5.916c0-2.345,0.631-4.025,1.926-4.936
		c0.77-0.524,1.646-0.91,3.256-1.33c0.49-0.104-0.42,0.105,2.801-0.63c1.504-0.35,1.994-0.91,1.994-2.275
		c0-1.05-0.629-1.715-1.645-1.715c-1.365,0-1.891,0.735-1.891,2.59H404.82z M414.166,50.542c0-0.63,0-0.806,0.105-1.4
		c-0.279,0.21-0.35,0.245-0.699,0.385l-0.596,0.245c-2.1,0.771-2.381,1.085-2.381,2.836c0,1.47,0.596,2.24,1.715,2.24
		c0.842,0,1.471-0.525,1.717-1.436c0.104-0.385,0.139-0.805,0.139-1.646V50.542z"/>
	<path fill="#FFFFFF" d="M430.056,40.146c0,0.386-0.035,0.665-0.211,1.365l0.176,0.035c1.016-2.135,2.904-3.255,5.426-3.115
		c2.205,0.104,3.709,1.085,4.34,2.8c0.314,0.841,0.42,1.891,0.42,3.815v13.757h-6.65V46.201c0-2.03-0.385-2.73-1.471-2.73
		c-1.26,0-1.82,0.771-1.82,2.556v12.776h-6.58V38.99h6.371V40.146z"/>
	<path fill="#FFFFFF" d="M443.494,38.99c0.387,0,0.525,0,0.91,0.141c-0.139-0.385-0.139-0.525-0.139-0.91V33.25h6.58v4.971
		c0,0.385,0,0.525-0.141,0.91c0.387-0.141,0.525-0.141,0.91-0.141h1.855v4.376h-1.855c-0.385,0-0.523,0-0.91-0.14
		c0.141,0.385,0.141,0.524,0.141,0.909v8.401c0,1.085,0.07,1.4,0.385,1.68c0.316,0.28,1.121,0.421,1.961,0.351
		c0.07,0,0.141-0.035,0.279-0.035v4.306c-0.84,0.175-2.346,0.28-3.395,0.28c-4.865,0-5.811-0.91-5.811-5.601v-9.382
		c0-0.385,0-0.524,0.139-0.909c-0.385,0.14-0.523,0.14-0.91,0.14h-1.539V38.99H443.494z"/>
	<path fill="#FFFFFF" d="M460.82,52.502c-0.035,1.891,0.49,2.695,1.82,2.766c1.189,0.069,1.924-0.596,1.924-1.716
		c0-0.699-0.244-1.154-0.77-1.505c-0.314-0.175-0.629-0.35-1.016-0.455l-0.84-0.314l-0.805-0.28l-0.84-0.28
		c-3.885-1.365-5.18-2.976-5.18-6.336c0-3.92,2.764-6.021,7.875-6.021c2.52,0,4.551,0.596,5.811,1.716
		c1.051,0.944,1.541,2.274,1.541,4.13v0.385h-5.707c0.035-1.575-0.455-2.205-1.68-2.205c-1.154,0-1.785,0.49-1.785,1.436
		c0,1.015,0.525,1.47,2.275,1.995c2.311,0.7,3.885,1.295,4.865,1.82c1.506,0.875,2.381,2.45,2.486,4.655
		c0.209,4.445-2.695,7.001-7.947,7.001c-5.391,0-7.875-1.995-7.875-6.336v-0.455H460.82z"/>
</g>
<g>
	<path fill="#FFFFFF" d="M285.438,7.561c0,0.386-0.035,0.665-0.21,1.365l0.175,0.035c1.015-2.135,2.905-3.255,5.426-3.115
		c2.205,0.104,3.71,1.085,4.34,2.8c0.315,0.841,0.42,1.891,0.42,3.815v13.757h-6.65V13.616c0-2.03-0.385-2.73-1.47-2.73
		c-1.26,0-1.82,0.771-1.82,2.556v12.776h-6.581V6.405h6.371V7.561z"/>
	<path fill="#FFFFFF" d="M304.863,19.252c0.105,2.66,0.49,3.431,1.82,3.431c1.365,0,1.82-0.84,1.855-3.36h5.951
		c-0.105,5.11-2.521,7.386-7.841,7.386c-6.091,0-8.366-2.73-8.366-10.081c0-3.956,0.28-5.775,1.225-7.491
		c1.225-2.31,3.431-3.29,7.351-3.29c3.71,0,5.985,1.33,7.036,4.096c0.595,1.609,0.77,3.08,0.77,7v0.421h-8.891
		c-0.455,0-0.56-0.035-0.91-0.176V19.252z M307.453,13.791c0.455,0,0.595,0.035,0.98,0.176c0-1.681,0-1.785-0.105-2.45
		c-0.175-1.12-0.665-1.61-1.646-1.61c-1.435,0-1.855,0.91-1.855,4.061c0.385-0.141,0.49-0.176,0.91-0.176H307.453z"/>
	<path fill="#FFFFFF" d="M323.973,0v4.586h-6.616V0H323.973z M323.973,6.405v19.813h-6.616V6.405H323.973z"/>
	<path fill="#FFFFFF" d="M333.282,27.338c0.035,1.155,0.595,1.646,1.855,1.646c1.33,0,1.925-0.875,1.925-2.94v-1.505
		c0-0.666,0.035-0.98,0.175-1.751l-0.14-0.035c-1.155,2.03-2.52,2.905-4.515,2.905c-4.096,0-5.951-3.08-5.951-9.87
		c0-3.711,0.455-6.091,1.47-7.631c0.945-1.506,2.59-2.311,4.655-2.311c2.24,0,3.71,1.19,4.48,3.57l0.175-0.035
		c-0.175-0.945-0.21-1.295-0.21-1.61V6.405h6.196v17.957c0,3.396-0.245,4.586-1.225,5.881c-1.33,1.82-3.675,2.695-7.246,2.695
		c-5.181,0-7.491-1.715-7.631-5.601H333.282z M333.492,12.321c-0.14,0.63-0.21,1.82-0.21,3.431c0,2.345,0.07,3.325,0.315,4.025
		c0.245,0.734,0.771,1.12,1.436,1.12c0.84,0,1.33-0.386,1.645-1.261c0.245-0.63,0.315-1.609,0.315-3.92
		c0-3.78-0.455-4.971-1.89-4.971C334.297,10.746,333.737,11.307,333.492,12.321z"/>
	<path fill="#FFFFFF" d="M353.336,4.235c0,1.995-0.035,2.521-0.21,4.41l0.175,0.035c1.12-1.925,2.66-2.8,4.97-2.8
		c2.345,0,4.096,1.155,4.656,3.115c0.245,0.77,0.315,1.82,0.315,3.78v13.441h-6.581V13.932c0-1.295-0.035-1.82-0.21-2.17
		c-0.245-0.561-0.7-0.841-1.33-0.841c-0.7,0-1.295,0.386-1.575,1.051c-0.175,0.42-0.21,0.84-0.21,1.854v12.392h-6.545V0h6.545V4.235
		z"/>
	<path fill="#FFFFFF" d="M373.216,4.235c0,1.995-0.035,2.556-0.21,4.445l0.175,0.07c1.19-2.065,2.485-2.87,4.516-2.87
		c2.485,0,4.131,1.155,5.006,3.5c0.56,1.471,0.805,3.676,0.805,7.036c0,7.176-1.82,10.326-5.951,10.326
		c-2.31,0-3.395-0.7-4.55-3.011l-0.175,0.07c0.175,0.665,0.209,0.979,0.209,1.295v1.12h-6.404V0h6.58V4.235z M373.111,16.557
		c0,4.131,0.42,5.32,1.891,5.32c1.365,0,1.82-1.33,1.82-5.391c0-4.69-0.314-5.67-1.82-5.67
		C373.461,10.816,373.111,11.901,373.111,16.557z"/>
	<path fill="#FFFFFF" d="M402.441,16.207c0,7.525-2.414,10.501-8.436,10.501c-6.301,0-8.436-2.625-8.436-10.466
		c0-4.306,0.631-6.687,2.205-8.296c1.4-1.436,3.396-2.136,6.195-2.136C400.306,5.811,402.441,8.436,402.441,16.207z M392.151,16.242
		c0,5.075,0.35,6.266,1.854,6.266c1.471,0,1.855-1.331,1.855-6.301c0-5.041-0.314-6.161-1.82-6.161
		C392.536,10.046,392.151,11.271,392.151,16.242z"/>
	<path fill="#FFFFFF" d="M411.822,6.405v12.217c0,1.295,0.035,1.75,0.174,2.135c0.211,0.631,0.631,0.91,1.365,0.91
		c0.701,0,1.365-0.49,1.576-1.155c0.104-0.35,0.139-0.805,0.139-1.68V6.405h6.617v19.813h-6.371v-1.19
		c0-0.385,0.035-0.7,0.209-1.399l-0.174-0.035c-1.156,2.1-2.73,3.115-4.936,3.115c-2.346,0-3.92-0.84-4.691-2.415
		c-0.35-0.806-0.525-1.891-0.525-3.605V6.405H411.822z"/>
	<path fill="#FFFFFF" d="M431.386,6.405v1.471c0,0.525-0.035,0.875-0.211,1.68l0.176,0.035c0.664-1.295,1.051-1.89,1.645-2.415
		c1.016-0.945,1.68-1.155,3.676-1.155h0.314v6.126c-0.629-0.07-1.049-0.105-1.539-0.105c-1.576,0-2.695,0.42-3.326,1.19
		c-0.385,0.49-0.525,1.085-0.525,2.45v10.536h-6.545V6.405H431.386z"/>
	<path fill="#FFFFFF" d="M445.419,4.235c0,1.995-0.035,2.521-0.209,4.41l0.174,0.035c1.121-1.925,2.66-2.8,4.971-2.8
		c2.346,0,4.096,1.155,4.656,3.115c0.244,0.77,0.314,1.82,0.314,3.78v13.441h-6.58V13.932c0-1.295-0.035-1.82-0.211-2.17
		c-0.244-0.561-0.699-0.841-1.33-0.841c-0.699,0-1.295,0.386-1.574,1.051c-0.176,0.42-0.211,0.84-0.211,1.854v12.392h-6.545V0h6.545
		V4.235z"/>
	<path fill="#FFFFFF" d="M474.96,16.207c0,7.525-2.414,10.501-8.436,10.501c-6.301,0-8.436-2.625-8.436-10.466
		c0-4.306,0.629-6.687,2.205-8.296c1.4-1.436,3.395-2.136,6.195-2.136C472.826,5.811,474.96,8.436,474.96,16.207z M464.669,16.242
		c0,5.075,0.35,6.266,1.855,6.266c1.471,0,1.855-1.331,1.855-6.301c0-5.041-0.314-6.161-1.82-6.161S464.669,11.271,464.669,16.242z"
		/>
	<path fill="#FFFFFF" d="M493.966,16.207c0,7.525-2.416,10.501-8.438,10.501c-6.299,0-8.436-2.625-8.436-10.466
		c0-4.306,0.631-6.687,2.205-8.296c1.4-1.436,3.396-2.136,6.197-2.136C491.83,5.811,493.966,8.436,493.966,16.207z M483.675,16.242
		c0,5.075,0.35,6.266,1.854,6.266c1.471,0,1.855-1.331,1.855-6.301c0-5.041-0.314-6.161-1.82-6.161
		C484.06,10.046,483.675,11.271,483.675,16.242z"/>
	<path fill="#FFFFFF" d="M512.865,26.218h-6.301v-1.226c0-0.244,0.035-0.454,0.211-1.47l-0.176-0.035
		c-0.77,2.101-2.379,3.221-4.654,3.221c-4.166,0-5.846-2.94-5.846-10.256c0-3.956,0.385-6.336,1.225-7.876
		c0.98-1.75,2.625-2.695,4.656-2.695c2.1,0,3.359,0.805,4.375,2.8l0.176-0.035c-0.176-1.89-0.211-2.415-0.211-4.445V0h6.545V26.218z
		 M502.994,12.251c-0.174,0.631-0.244,2.03-0.244,4.096c0,4.271,0.42,5.496,1.82,5.496c1.506,0,1.891-1.155,1.891-5.461
		c0-4.41-0.352-5.496-1.82-5.565C503.8,10.781,503.24,11.271,502.994,12.251z"/>
</g>
<g>
	<path fill="#FFFFFF" d="M78.342,53.707c4.08,0,6.61-3.077,6.61-6.836c0-3.753-2.53-6.858-6.61-6.858
		c-4.051,0-6.583,3.105-6.583,6.858C71.759,50.63,74.291,53.707,78.342,53.707 M78.342,38.091c5.147,0,8.777,3.672,8.777,8.78
		c0,5.113-3.63,8.785-8.777,8.785c-5.149,0-8.751-3.672-8.751-8.785C69.591,41.763,73.193,38.091,78.342,38.091"/>
	<path fill="#FFFFFF" d="M201.854,53.707c4.135,0,6.611-3.077,6.611-6.836c0-3.753-2.476-6.858-6.611-6.858
		c-4.052,0-6.555,3.105-6.555,6.858C195.298,50.63,197.801,53.707,201.854,53.707 M201.854,38.091c5.147,0,8.805,3.672,8.805,8.78
		c0,5.113-3.658,8.785-8.805,8.785c-5.035,0-8.72-3.672-8.72-8.785C193.133,41.763,196.818,38.091,201.854,38.091"/>
	<path fill="#FFFFFF" d="M98.566,53.708c-3.824,0-4.613-2.684-4.613-5.367v-9.855H91.79v9.941c0,3.7,1.209,7.202,6.777,7.202
		c2.844,0,4.812-1.893,5.32-4.462v4.039h2.166V38.485h-2.166v9.855C103.378,50.939,101.86,53.708,98.566,53.708"/>
	<path fill="#FFFFFF" d="M119.725,40.013c3.826,0,4.782,2.654,4.782,5.335v9.858h2.136v-9.914c0-3.671-1.322-7.201-6.918-7.201
		c-2.872,0-5.067,1.862-5.57,4.461v-4.066h-2.168v16.721h2.168v-9.858C114.657,42.75,116.402,40.013,119.725,40.013"/>
	<path fill="#FFFFFF" d="M109.284,23.434c-3.858,0-4.618-2.656-4.618-5.367V8.212h-2.163v9.939c0,3.672,1.179,7.175,6.781,7.175
		c2.81,0,4.807-1.864,5.315-4.462v4.065h2.165V8.212h-2.165v9.854C114.091,20.666,112.543,23.434,109.284,23.434"/>
	<path fill="#FFFFFF" d="M61.126,40.463h-3.433v-1.978h3.433v-3.388c0-3.164,1.884-4.266,4.079-4.266h2.39v1.892h-1.631
		c-2.448,0-2.701,0.679-2.701,3.108v2.653h4.585v1.978h-4.585v14.743h-2.137V40.463z"/>
</g>
<polygon fill="#FFFFFF" points="14.6,8.212 8.607,22.557 2.42,8.212 0,8.212 7.4,24.929 9.619,24.929 16.962,8.212 "/>
<polygon fill="#FFFFFF" points="120.754,8.212 123.203,8.212 129.363,22.558 135.44,8.212 137.717,8.212 130.46,24.929 
	128.237,24.929 "/>
<g>
	<path fill="#FFFFFF" d="M177.425,51.024c0,1.864,0.225,2.4,2.446,2.4h2.109v1.781c-0.73,0.085-2.109,0.113-2.586,0.113
		c-3.011,0-4.136-1.104-4.136-3.729V40.463h-3.6v-1.977h3.6v-4.802h2.167v4.802h4.781v1.977h-4.781V51.024z"/>
	<path fill="#FFFFFF" d="M160.291,53.65c3.013,0,4.671-1.608,5.628-3.699v-2.626h-5.513c-2.561,0-4.277,0.734-4.277,3.08
		C156.129,52.352,157.646,53.65,160.291,53.65 M166.004,52.182c-1.042,2.175-3.04,3.446-5.713,3.446
		c-3.796,0-6.553-1.777-6.553-5.223c0-3.223,2.812-4.831,6.64-4.831h5.455v-1.498c0-2.936-1.771-4.123-4.248-4.123
		c-1.968,0-2.811,0.285-3.347,0.735c-0.814,0.595-1.01,1.271-1.098,2.031h-2.304c0.252-1.834,0.898-3.077,2.419-3.838
		c1.07-0.566,2.531-0.848,4.33-0.848c3.743,0,6.246,1.806,6.246,6.069v6.779c0,2.262,0.169,2.542,1.548,2.542h1.097v1.781
		c-0.255,0.026-1.321,0.055-2.027,0.055C166.762,55.261,166.004,54.387,166.004,52.182"/>
	<path fill="#FFFFFF" d="M154.106,15.158c0-2.993-2.589-5.422-5.793-5.422c-4.699,0-6.021,4.603-6.021,5.422H154.106z
		 M155.765,21.795c-1.715,2.513-4.276,3.616-7.202,3.616c-5.117,0-8.439-3.701-8.439-8.87c0-4.998,3.462-8.782,8.301-8.782
		c5.147,0,7.818,3.982,7.818,7.793v1.583h-13.951c0,1.808,1.266,6.3,6.3,6.3c2.195,0,4.446-1.188,5.57-2.994L155.765,21.795z"/>
	<path fill="#FFFFFF" d="M161.4,24.93V8.212h2.165v3.444c1.154-2.514,2.901-3.897,5.626-3.897h0.48v2.033h-0.507
		c-2.926,0-4.445,1.836-5.599,4.266V24.93H161.4z"/>
	<path fill="#FFFFFF" d="M187.176,31.368c0.904,0,1.661,0.734,1.661,1.638c0,0.907-0.757,1.64-1.661,1.64
		c-0.898,0-1.631-0.732-1.631-1.64C185.545,32.103,186.278,31.368,187.176,31.368 M186.109,38.485h2.195v16.721h-2.195V38.485z"/>
	<path fill="#FFFFFF" d="M48.173,9.736c3.827,0,4.782,2.654,4.782,5.337v9.856h2.139v-9.913c0-3.671-1.323-7.2-6.921-7.2
		c-2.869,0-5.064,1.864-5.571,4.462V8.212h-2.164V24.93h2.164v-9.856C43.109,12.478,44.852,9.736,48.173,9.736"/>
	<path fill="#FFFFFF" d="M223.122,40.013c3.826,0,4.782,2.654,4.782,5.335v9.858h2.138v-9.914c0-3.671-1.322-7.201-6.92-7.201
		c-2.872,0-5.065,1.862-5.57,4.461v-4.066h-2.167v16.721h2.167v-9.858C218.057,42.75,219.803,40.013,223.122,40.013"/>
	<path fill="#FFFFFF" d="M140.089,39.981c-4.331,0-6.807,3.107-6.807,6.864c0,3.756,2.476,6.833,7.033,6.833
		c4.022,0,6.046-2.483,6.301-4.94v-3.53C146.306,43.062,144.675,39.981,140.089,39.981 M146.617,51.562
		c-0.677,1.979-2.785,4.067-6.331,4.067c-5.596,0-9.199-3.476-9.199-8.783c0-5.113,3.547-8.783,9.003-8.783
		c3.178,0,5.768,1.497,6.527,3.784l-0.085-10.986h2.137l0.085,24.316h-2.137V51.562z"/>
	<path fill="#FFFFFF" d="M26.159,23.349c3.009,0,4.669-1.609,5.626-3.7v-2.626h-5.514c-2.559,0-4.276,0.734-4.276,3.078
		C21.995,22.049,23.514,23.349,26.159,23.349 M31.869,21.88c-1.041,2.176-3.038,3.446-5.71,3.446c-3.8,0-6.554-1.78-6.554-5.226
		c0-3.22,2.813-4.828,6.637-4.828h5.459v-1.498c0-2.937-1.772-4.124-4.248-4.124c-1.971,0-2.813,0.284-3.349,0.735
		c-0.815,0.593-1.012,1.271-1.098,2.034h-2.305c0.254-1.837,0.901-3.079,2.419-3.842c1.07-0.564,2.531-0.847,4.333-0.847
		c3.743,0,6.246,1.807,6.246,6.072v6.776c0,2.259,0.169,2.543,1.545,2.543h1.095v1.779c-0.25,0.027-1.319,0.056-2.021,0.056
		C32.63,24.958,31.869,24.082,31.869,21.88"/>
	<path fill="#FFFFFF" d="M88.811,9.733c4.132,0,6.749,2.964,6.749,6.803c0,3.838-2.56,6.858-6.693,6.858
		c-2.052,0-3.683-0.79-4.837-2.032l-1.604,1.355c1.662,1.693,3.967,2.597,6.441,2.597c5.228,0,8.858-3.585,8.858-8.778
		c0-5.194-3.684-8.723-8.914-8.723c-3.964,0-6.635,1.807-8.432,4.375c-3.211,4.601-4.671,11.178-11.839,11.178
		c-4.135,0-6.75-2.935-6.75-6.773c0-3.84,2.56-6.859,6.693-6.859c2.051,0,3.684,0.791,4.836,2.032l1.603-1.355
		c-1.662-1.693-3.967-2.597-6.439-2.597c-5.228,0-8.857,3.585-8.857,8.779c0,5.193,3.684,8.722,8.914,8.722
		c8.628,0,10.177-7.396,13.494-11.996C83.608,11.146,85.745,9.733,88.811,9.733"/>
</g>
<line fill="none" stroke="#FFFFFF" stroke-width="0.5" x1="253.684" y1="1.351" x2="253.684" y2="59.752"/>
</svg>
